<svg aria-hidden="true" style="position: absolute; width: 0; height: 0; overflow: hidden;" version="1.1"
	xmlns="http://www.w3.org/2000/svg" xmlns:xlink="http://www.w3.org/1999/xlink">
	<defs>
     
<symbol id="MALE" viewBox="0 0 128.000000 128.000000" >
  <g transform="translate(-37.000000,160.000000) scale(0.100000,-0.100000)">
    <path d="M954 1516 c-70 -31 -87 -120 -35 -178 26 -29 35 -33 81 -33 46 0 55 4 81 33 53 59 35 148 -37 178 -41 17 -50 17 -90 0z"/>
    <path d="M853 1228 c-23 -27 -78 -265 -68 -297 4 -15 18 -23 46 -27 27 -5 39 -12 39 -23 0 -9 7 -119 15 -245 17 -271 15 -266 112 -266 72 0 103 20 103 68 0 49 21 396 26 428 4 28 9 32 45 38 22 4 42 13 46 22 3 9 -7 75 -22 147 -37 180 -34 177 -195 177 -119 0 -128 -1 -147 -22z"/>
  </g>
</symbol>

			
<symbol id="FEMALE" viewBox="0 0 200.000000 200.000000" >
  <g transform="translate(0.000000,200.000000) scale(0.100000,-0.100000)" >
    <path d="M940 1869 c-112 -47 -138 -204 -45 -278 37 -28 91 -44 128 -37 148 28 188 208 65 299 -31 23 -111 32 -148 16z"/>
    <path d="M783 1508 c-12 -16 -230 -563 -238 -599 -16 -67 36 -149 95 -149 52 0 91 45 131 154 26 71 20 25 -21 -155 -18 -80 -31 -153 -27 -162 5 -14 20 -17 72 -17 l65 0 0 -191 0 -191 33 -33 c59 -59 155 -59 214 0 l33 33 0 191 0 191 65 0 c59 0 65 2 70 23 3 12 -10 91 -30 176 -38 169 -44 214 -16 135 39 -107 78 -154 131 -154 59 0 111 82 95 149 -9 37 -226 583 -238 599 -7 9 -63 12 -217 12 -154 0 -210 -3 -217 -12z"/>
  </g>
</symbol>

		<symbol id="icon-logout" viewBox="0 0 32 32">
			<path
				d="M25.293 9.293l-1.414 1.414 4.293 4.293h-14.172v2h14.172l-4.293 4.293 1.414 1.414 6.707-6.707-6.707-6.707z">
			</path>
			<path
				d="M22 30h-20v-28h20v2h2v-3c0-0.553-0.447-1-1-1h-22c-0.553 0-1 0.447-1 1v30c0 0.553 0.447 1 1 1h22c0.553 0 1-0.447 1-1v-3h-2v2z">
			</path>
		</symbol>

	</defs>
</svg>
